<svg xmlns="http://www.w3.org/2000/svg" viewBox="0 0 432 204" width="432" height="204">
  <path d="M 374.00 68.00 L 369.00 73.00 L 368.00 76.00 L 373.00 81.00 L 378.00 81.00 L 382.00 75.00 L 376.00 68.00 Z M 281.10 51.26 L 279.41 51.98 L 277.42 52.01 L 275.42 51.99 L 273.44 52.02 L 271.43 51.99 L 269.44 52.00 L 267.82 52.91 L 265.88 53.03 L 263.86 52.97 L 261.87 52.99 L 260.17 53.71 L 258.33 54.07 L 256.27 53.92 L 254.51 54.50 L 252.75 55.07 L 250.71 54.94 L 249.07 55.82 L 247.16 56.02 L 245.18 56.06 L 243.58 57.01 L 241.56 56.96 L 239.97 57.93 L 237.97 57.91 L 236.29 58.68 L 234.43 59.01 L 232.60 59.40 L 230.86 60.01 L 229.16 60.74 L 227.30 61.07 L 225.66 61.92 L 223.81 62.27 L 222.13 63.03 L 220.36 63.58 L 218.57 64.06 L 216.86 64.77 L 215.27 65.74 L 213.42 66.08 L 211.74 66.84 L 210.14 67.81 L 208.25 68.07 L 206.62 68.95 L 204.97 69.77 L 203.32 70.61 L 201.65 71.40 L 200.00 72.23 L 198.36 73.08 L 196.69 73.86 L 195.12 74.91 L 193.57 75.99 L 191.92 76.81 L 190.30 77.71 L 188.81 78.92 L 187.15 79.75 L 185.76 81.24 L 184.40 82.69 L 182.86 83.83 L 181.17 84.74 L 180.10 86.22 L 179.18 87.93 L 177.70 89.27 L 176.81 90.90 L 176.03 92.58 L 175.63 94.37 L 174.87 96.14 L 175.25 98.04 L 176.07 99.69 L 176.92 101.32 L 177.84 102.98 L 179.46 104.01 L 181.11 104.81 L 182.73 105.73 L 184.58 106.08 L 186.24 106.91 L 188.21 106.93 L 190.07 107.31 L 191.76 108.01 L 193.75 107.98 L 195.79 108.07 L 197.70 107.87 L 199.38 107.11 L 201.31 106.95 L 203.34 107.03 L 205.32 107.01 L 207.22 106.76 L 208.85 105.89 L 210.94 106.11 L 212.63 105.36 L 214.46 104.98 L 216.10 104.12 L 217.99 103.86 L 219.60 102.94 L 221.26 102.12 L 222.91 101.29 L 224.55 100.42 L 226.26 99.74 L 227.62 98.25 L 229.21 97.18 L 230.75 96.21 L 231.43 94.49 L 232.97 93.11 L 234.04 91.56 L 233.01 90.03 L 231.03 90.14 L 229.56 91.40 L 227.94 92.28 L 226.25 93.04 L 224.77 94.28 L 223.08 95.00 L 221.34 95.62 L 219.51 96.02 L 217.89 96.92 L 215.91 96.96 L 214.22 97.70 L 212.37 98.04 L 210.32 98.03 L 208.55 97.55 L 206.80 96.96 L 205.05 96.31 L 204.01 94.56 L 203.97 92.62 L 204.95 91.04 L 206.35 89.56 L 207.84 88.28 L 209.49 87.49 L 210.95 86.19 L 212.64 85.44 L 214.29 84.62 L 215.95 83.80 L 217.60 82.96 L 219.23 82.08 L 221.11 81.81 L 222.72 80.88 L 224.38 80.07 L 226.23 79.71 L 227.91 78.96 L 229.67 78.39 L 231.49 77.96 L 233.13 77.11 L 235.01 76.82 L 236.66 75.99 L 238.63 75.92 L 240.27 75.08 L 242.23 74.99 L 243.94 74.31 L 245.78 73.91 L 247.80 73.99 L 249.38 72.99 L 251.39 73.01 L 253.37 72.97 L 255.07 72.28 L 256.93 71.94 L 258.93 71.94 L 260.95 71.99 L 262.95 72.01 L 264.95 72.02 L 266.94 72.02 L 268.93 72.02 L 270.92 72.00 L 272.91 71.99 L 274.91 71.98 L 276.92 71.97 L 278.93 71.99 L 280.64 72.61 L 282.47 73.04 L 284.47 73.02 L 286.13 73.82 L 288.05 74.02 L 289.80 74.60 L 291.44 75.46 L 293.09 76.29 L 294.75 77.10 L 296.30 78.19 L 297.62 79.72 L 298.45 81.34 L 299.04 83.10 L 299.70 84.82 L 299.98 86.64 L 299.03 88.31 L 299.02 90.27 L 298.27 91.97 L 297.40 93.60 L 296.70 95.30 L 295.21 96.68 L 294.15 98.24 L 293.17 99.83 L 291.79 101.25 L 290.33 102.64 L 288.94 104.06 L 287.55 105.50 L 286.06 106.75 L 284.41 107.57 L 283.01 109.01 L 281.59 110.40 L 280.20 111.87 L 278.65 112.95 L 277.04 113.88 L 275.67 115.38 L 274.02 116.22 L 272.35 117.01 L 270.84 118.17 L 269.23 119.12 L 267.69 120.21 L 266.13 121.25 L 264.57 122.31 L 262.97 123.27 L 261.29 124.03 L 259.79 125.21 L 258.20 126.19 L 256.52 126.96 L 254.89 127.85 L 253.21 128.61 L 251.58 129.50 L 249.90 130.26 L 248.27 131.13 L 246.60 131.93 L 244.97 132.80 L 243.31 133.61 L 241.64 134.39 L 240.01 135.27 L 238.33 136.05 L 236.71 136.95 L 234.82 137.20 L 233.23 138.18 L 231.55 138.94 L 229.93 139.84 L 228.25 140.59 L 226.61 141.47 L 224.95 142.27 L 223.25 142.99 L 221.44 143.43 L 219.84 144.38 L 218.11 145.02 L 216.31 145.51 L 214.71 146.45 L 212.95 147.03 L 211.22 147.67 L 209.42 148.13 L 207.71 148.82 L 205.94 149.37 L 204.18 149.94 L 202.45 150.57 L 200.64 151.02 L 198.98 151.84 L 197.11 152.13 L 195.46 152.96 L 193.65 153.42 L 191.88 153.97 L 190.02 154.28 L 188.27 154.89 L 186.56 155.56 L 184.74 155.99 L 183.08 156.80 L 181.20 157.09 L 179.57 157.97 L 177.61 158.04 L 175.90 158.74 L 174.05 159.08 L 172.22 159.50 L 170.49 160.12 L 168.81 160.89 L 166.86 161.01 L 165.13 161.65 L 163.29 162.02 L 161.48 162.47 L 159.74 163.08 L 157.68 162.93 L 156.06 163.83 L 154.14 164.02 L 152.17 164.06 L 150.57 165.02 L 148.54 164.95 L 146.71 165.34 L 145.01 166.07 L 142.97 165.94 L 141.08 166.21 L 139.41 166.98 L 137.43 167.03 L 135.40 166.94 L 133.60 167.42 L 131.87 168.05 L 129.85 167.99 L 127.85 167.99 L 126.13 168.64 L 124.30 169.06 L 122.32 169.09 L 120.27 168.95 L 118.25 168.90 L 116.37 169.18 L 114.67 169.89 L 112.73 170.02 L 110.72 169.98 L 108.74 170.02 L 106.73 169.99 L 104.73 169.97 L 103.08 170.81 L 101.17 171.03 L 99.17 171.01 L 97.17 170.99 L 95.17 170.99 L 93.17 171.01 L 91.18 171.02 L 89.19 171.01 L 87.21 170.97 L 85.21 170.97 L 83.17 171.08 L 81.26 170.87 L 79.61 170.04 L 77.63 170.00 L 75.66 169.95 L 73.64 170.01 L 71.61 170.10 L 69.81 169.62 L 68.08 168.97 L 66.08 168.99 L 64.05 169.06 L 62.34 168.38 L 60.52 167.94 L 58.49 168.04 L 56.91 167.04 L 54.90 167.07 L 53.22 166.31 L 51.40 165.89 L 49.71 165.15 L 47.86 164.79 L 46.25 163.87 L 44.59 163.05 L 42.94 162.21 L 41.35 161.25 L 39.79 160.18 L 38.24 159.19 L 36.73 157.84 L 35.47 156.33 L 34.58 154.73 L 33.79 153.05 L 32.98 151.40 L 32.98 149.39 L 32.16 147.77 L 31.85 145.82 L 32.32 143.89 L 33.04 142.27 L 32.94 140.21 L 33.47 138.44 L 34.32 136.80 L 35.20 135.16 L 35.95 133.48 L 37.04 131.94 L 38.44 130.52 L 39.30 128.88 L 40.55 127.41 L 42.02 126.02 L 43.02 124.43 L 44.14 122.91 L 45.46 121.46 L 46.92 120.05 L 48.37 118.66 L 49.77 117.27 L 51.16 115.86 L 52.56 114.40 L 53.97 112.96 L 55.40 111.60 L 56.88 110.37 L 58.48 109.43 L 59.93 108.10 L 61.32 106.63 L 62.97 105.80 L 64.46 104.58 L 65.88 103.20 L 67.58 102.49 L 68.95 100.98 L 70.54 100.00 L 72.09 98.91 L 73.68 97.95 L 75.20 96.79 L 76.83 95.90 L 78.32 94.68 L 79.97 93.84 L 81.43 92.57 L 83.10 91.78 L 84.55 90.47 L 86.23 89.70 L 87.68 88.38 L 89.35 87.60 L 91.00 86.76 L 92.67 85.98 L 94.18 84.81 L 95.79 83.87 L 97.43 83.02 L 99.10 82.24 L 100.70 81.27 L 102.21 80.09 L 103.82 79.18 L 105.35 78.04 L 106.94 77.08 L 108.48 75.96 L 110.13 75.16 L 111.82 74.32 L 113.02 72.70 L 112.68 71.05 L 111.10 71.70 L 109.41 72.55 L 107.78 73.39 L 106.03 74.00 L 104.27 74.57 L 102.64 75.45 L 100.95 76.19 L 99.49 77.48 L 97.83 78.30 L 96.18 79.13 L 94.54 79.98 L 92.90 80.83 L 91.24 81.65 L 89.58 82.46 L 87.92 83.26 L 86.27 84.11 L 84.61 84.92 L 83.05 85.96 L 81.50 87.04 L 79.84 87.84 L 78.19 88.69 L 76.53 89.50 L 75.07 90.79 L 73.39 91.56 L 71.73 92.35 L 70.27 93.66 L 68.60 94.42 L 66.95 95.27 L 65.27 96.04 L 63.78 97.24 L 62.14 98.11 L 60.66 99.35 L 59.00 100.17 L 57.53 101.44 L 56.11 102.81 L 54.40 103.52 L 53.04 105.04 L 51.45 106.01 L 49.88 107.05 L 48.50 108.54 L 46.81 109.27 L 45.35 110.58 L 44.00 112.11 L 42.38 113.04 L 40.82 114.08 L 39.45 115.57 L 38.04 117.00 L 36.60 118.38 L 35.19 119.78 L 33.82 121.21 L 32.42 122.64 L 30.88 123.99 L 29.63 125.46 L 28.71 127.08 L 27.45 128.56 L 26.15 130.01 L 25.40 131.70 L 24.56 133.34 L 23.35 134.84 L 22.48 136.47 L 21.67 138.13 L 21.02 139.86 L 20.42 141.60 L 19.97 143.42 L 19.15 145.07 L 18.95 146.98 L 19.01 149.01 L 19.02 150.99 L 18.99 152.98 L 18.96 155.00 L 19.13 156.92 L 19.98 158.57 L 20.37 160.41 L 21.21 162.05 L 22.50 163.50 L 23.28 165.21 L 24.59 166.61 L 26.07 168.00 L 27.43 169.50 L 28.83 170.89 L 30.40 171.95 L 32.05 172.78 L 33.70 173.62 L 35.36 174.42 L 37.02 175.23 L 38.67 176.07 L 40.31 176.93 L 42.16 177.27 L 43.86 177.98 L 45.59 178.63 L 47.46 178.93 L 49.26 179.41 L 51.00 180.02 L 52.95 180.12 L 54.58 181.03 L 56.59 180.97 L 58.56 181.05 L 60.20 181.90 L 62.15 182.01 L 64.15 182.00 L 65.89 182.62 L 67.67 183.13 L 69.75 182.94 L 71.71 183.02 L 73.70 183.02 L 75.31 183.96 L 77.28 184.03 L 79.29 183.98 L 81.28 183.99 L 83.27 184.00 L 85.27 184.00 L 87.26 184.00 L 89.26 184.01 L 91.26 184.01 L 93.25 184.00 L 95.25 184.00 L 97.24 184.00 L 99.24 183.99 L 101.23 183.99 L 103.22 183.99 L 105.24 184.03 L 107.22 183.99 L 108.94 183.32 L 110.76 182.90 L 112.78 182.98 L 114.81 183.06 L 116.77 182.97 L 118.77 182.99 L 120.79 183.04 L 122.57 182.52 L 124.33 181.94 L 126.31 181.92 L 128.38 182.09 L 130.33 181.98 L 131.99 181.16 L 133.90 180.98 L 135.90 180.98 L 137.93 181.06 L 139.84 180.86 L 141.49 180.03 L 143.47 179.99 L 145.47 179.99 L 147.12 179.17 L 149.02 178.93 L 151.07 179.06 L 152.97 178.85 L 154.60 177.96 L 156.64 178.06 L 158.43 177.56 L 160.16 176.93 L 162.22 177.07 L 163.86 176.23 L 165.75 175.97 L 167.75 175.97 L 169.34 175.00 L 171.35 175.04 L 173.21 174.71 L 174.89 173.95 L 176.88 173.94 L 178.48 172.97 L 180.48 173.00 L 182.12 172.13 L 184.07 172.02 L 185.97 171.79 L 187.63 170.99 L 189.63 171.00 L 191.24 170.07 L 193.12 169.78 L 194.78 168.97 L 196.76 168.94 L 198.41 168.10 L 200.20 167.61 L 201.93 166.98 L 203.90 166.91 L 205.53 166.02 L 207.36 165.62 L 209.08 164.96 L 211.03 164.86 L 212.68 164.01 L 214.47 163.53 L 216.25 162.99 L 217.92 162.21 L 219.79 161.92 L 221.41 161.00 L 223.40 161.00 L 225.08 160.24 L 226.68 159.28 L 228.55 158.97 L 230.19 158.12 L 232.05 157.78 L 233.72 157.01 L 235.51 156.50 L 237.29 155.99 L 238.97 155.23 L 240.82 154.89 L 242.46 154.01 L 244.09 153.14 L 245.94 152.79 L 247.60 151.98 L 249.24 151.12 L 250.86 150.21 L 252.74 149.93 L 254.37 149.05 L 256.02 148.21 L 257.68 147.40 L 259.34 146.59 L 261.00 145.78 L 262.64 144.93 L 264.29 144.10 L 266.13 143.71 L 267.78 142.89 L 269.42 142.02 L 271.07 141.20 L 272.69 140.30 L 274.53 139.92 L 276.23 139.19 L 277.80 138.17 L 279.32 137.03 L 280.99 136.24 L 282.64 135.40 L 284.32 134.63 L 285.76 133.31 L 287.46 132.58 L 289.09 131.70 L 290.58 130.49 L 292.24 129.67 L 293.88 128.82 L 295.40 127.66 L 297.02 126.76 L 298.67 125.94 L 300.21 124.83 L 301.82 123.89 L 303.32 122.70 L 304.95 121.82 L 306.45 120.63 L 308.07 119.72 L 309.54 118.46 L 311.02 117.21 L 312.66 116.36 L 314.07 114.93 L 315.48 113.53 L 317.13 112.68 L 318.62 111.47 L 319.99 109.97 L 321.40 108.55 L 323.08 107.79 L 324.54 106.50 L 325.98 105.06 L 327.00 103.50 L 328.03 101.93 L 329.44 100.52 L 330.95 99.15 L 331.95 97.57 L 333.00 96.01 L 334.01 94.43 L 335.11 92.89 L 336.13 91.32 L 336.90 89.65 L 337.78 88.01 L 338.61 86.36 L 339.04 84.54 L 339.32 82.66 L 340.06 80.97 L 340.03 78.98 L 339.93 76.93 L 340.08 74.97 L 339.30 73.25 L 338.95 71.41 L 338.14 69.75 L 337.21 68.14 L 335.70 66.77 L 334.88 65.10 L 333.69 63.62 L 331.98 62.76 L 330.51 61.56 L 329.07 60.18 L 327.38 59.46 L 325.73 58.63 L 324.08 57.80 L 322.40 57.03 L 320.60 56.57 L 318.84 55.99 L 317.15 55.25 L 315.28 54.95 L 313.68 53.99 L 311.64 54.09 L 309.84 53.64 L 308.11 52.98 L 306.11 53.01 L 304.17 52.88 L 302.50 52.08 L 300.57 51.92 L 298.52 52.05 L 296.54 52.01 L 294.56 51.98 L 292.92 51.17 L 290.98 50.93 L 288.97 51.02 L 287.01 51.06 L 284.99 50.97 L 282.95 50.90 Z M 313.04 19.10 L 311.27 20.06 L 309.06 19.96 L 306.94 20.06 L 304.71 19.93 L 302.59 20.05 L 300.77 20.89 L 298.64 20.98 L 296.49 21.02 L 294.30 20.97 L 292.36 21.52 L 290.44 22.12 L 288.18 21.89 L 286.15 22.22 L 284.31 23.01 L 282.12 22.96 L 279.97 23.01 L 277.91 23.28 L 276.06 24.04 L 273.87 23.98 L 271.80 24.24 L 270.01 25.14 L 267.75 24.92 L 265.97 25.85 L 263.88 26.04 L 261.68 25.97 L 259.88 26.86 L 257.75 26.96 L 255.73 27.30 L 253.90 28.13 L 251.66 27.95 L 249.87 28.86 L 247.74 28.96 L 245.72 29.31 L 243.87 30.08 L 241.81 30.35 L 239.92 31.01 L 237.84 31.24 L 235.99 32.00 L 234.16 32.81 L 232.04 32.94 L 230.22 33.77 L 228.13 33.95 L 226.28 34.72 L 224.21 34.96 L 222.33 35.67 L 220.31 36.02 L 218.58 37.07 L 216.36 36.95 L 214.63 38.02 L 212.44 37.96 L 210.71 39.01 L 208.67 39.32 L 206.77 39.97 L 205.00 40.94 L 202.90 41.10 L 201.12 42.04 L 199.03 42.22 L 197.18 43.01 L 195.30 43.70 L 193.26 44.00 L 191.52 45.03 L 189.47 45.32 L 187.79 46.51 L 185.82 46.97 L 184.04 47.91 L 181.95 48.10 L 180.18 49.06 L 178.18 49.48 L 176.50 50.65 L 174.50 51.06 L 172.67 51.86 L 170.91 52.86 L 169.15 53.84 L 167.07 54.05 L 165.35 55.14 L 163.52 55.95 L 161.75 56.93 L 159.71 57.23 L 157.99 58.32 L 156.16 59.13 L 154.39 60.09 L 152.57 60.92 L 150.81 61.92 L 148.98 62.74 L 147.20 63.67 L 145.39 64.54 L 143.60 65.44 L 141.82 66.40 L 139.97 67.17 L 138.22 68.16 L 136.40 69.01 L 134.73 70.22 L 132.99 71.23 L 131.19 72.13 L 129.55 73.41 L 127.76 74.32 L 125.98 75.25 L 124.39 76.65 L 122.52 77.37 L 120.99 78.93 L 119.16 79.73 L 117.55 81.08 L 115.77 82.03 L 114.29 83.68 L 112.49 84.55 L 110.91 86.00 L 109.43 87.65 L 107.79 88.92 L 106.01 89.84 L 104.51 91.51 L 103.02 93.04 L 101.39 94.51 L 100.11 96.18 L 99.18 97.94 L 97.50 99.42 L 96.16 101.03 L 95.25 102.83 L 93.92 104.44 L 93.18 106.30 L 92.05 108.01 L 91.87 110.10 L 90.99 111.90 L 90.39 113.82 L 89.89 115.78 L 90.02 118.01 L 90.03 120.18 L 89.93 122.34 L 90.97 124.10 L 91.16 126.19 L 92.26 127.90 L 93.05 129.76 L 94.37 131.32 L 95.86 132.96 L 97.44 134.44 L 99.24 135.30 L 100.79 136.80 L 102.68 137.48 L 104.41 138.53 L 106.22 139.39 L 108.18 139.91 L 109.96 140.84 L 112.06 140.99 L 113.93 141.71 L 115.98 141.99 L 118.07 142.19 L 119.86 143.12 L 122.08 142.99 L 124.26 142.95 L 126.26 143.36 L 128.15 144.02 L 130.33 144.00 L 132.50 144.00 L 134.67 144.00 L 136.84 144.00 L 139.01 144.00 L 141.17 144.00 L 143.34 144.00 L 145.51 143.99 L 147.68 144.01 L 149.84 143.98 L 151.58 142.95 L 153.78 143.02 L 155.94 143.00 L 158.09 142.96 L 160.31 143.09 L 162.28 142.62 L 164.17 141.93 L 166.38 142.03 L 168.56 142.06 L 170.49 141.49 L 172.42 140.92 L 174.64 141.04 L 176.75 140.91 L 178.53 139.97 L 180.75 140.08 L 182.63 139.40 L 184.61 138.94 L 186.80 138.99 L 188.53 137.94 L 190.70 137.93 L 192.49 137.02 L 194.46 136.54 L 196.42 136.04 L 198.16 135.00 L 200.23 134.78 L 202.09 134.02 L 203.87 133.10 L 205.93 132.82 L 207.75 131.99 L 209.72 131.51 L 211.45 130.45 L 213.26 129.58 L 215.21 129.07 L 217.03 128.21 L 218.82 127.30 L 220.85 126.97 L 222.60 125.97 L 224.37 125.01 L 226.42 124.71 L 228.13 123.61 L 229.96 122.79 L 231.59 121.48 L 233.54 120.97 L 235.31 120.00 L 237.16 119.24 L 238.88 118.15 L 240.55 116.96 L 242.26 115.83 L 243.75 114.21 L 245.63 113.50 L 247.08 111.80 L 248.91 110.88 L 250.48 109.58 L 251.97 107.94 L 253.61 106.46 L 255.10 104.94 L 256.13 103.19 L 257.43 101.55 L 258.85 99.98 L 259.14 97.93 L 260.14 96.17 L 260.03 93.91 L 259.17 92.11 L 257.26 92.62 L 256.60 94.57 L 255.52 96.28 L 254.17 97.86 L 252.62 99.50 L 250.96 100.72 L 249.24 101.78 L 247.69 103.29 L 245.94 104.28 L 244.34 105.67 L 242.47 106.38 L 240.74 107.44 L 238.90 108.24 L 237.29 109.57 L 235.52 110.53 L 233.73 111.45 L 231.76 111.94 L 229.95 112.81 L 228.16 113.72 L 226.12 114.03 L 224.36 115.01 L 222.39 115.49 L 220.47 116.08 L 218.47 116.48 L 216.66 117.36 L 214.77 118.04 L 212.71 118.29 L 210.92 119.20 L 209.13 120.12 L 206.99 120.20 L 205.17 121.03 L 203.03 121.10 L 201.26 122.07 L 199.09 122.04 L 197.35 123.08 L 195.12 122.94 L 193.06 123.19 L 191.24 124.03 L 189.05 123.99 L 186.95 124.15 L 185.15 125.04 L 182.96 124.98 L 180.90 125.24 L 179.05 126.01 L 176.91 126.07 L 174.68 125.94 L 172.54 126.00 L 170.38 126.01 L 168.44 126.53 L 166.44 127.05 L 164.30 126.93 L 162.08 127.08 L 159.96 126.97 L 158.06 126.31 L 156.05 125.92 L 153.86 125.99 L 151.65 126.09 L 149.57 125.87 L 147.69 125.17 L 145.60 124.97 L 143.44 124.96 L 141.66 124.04 L 139.48 124.07 L 137.76 122.98 L 135.68 122.75 L 133.93 121.74 L 132.15 120.81 L 130.30 120.01 L 128.72 118.70 L 127.12 117.16 L 125.67 115.61 L 124.60 113.88 L 123.97 111.96 L 124.03 109.81 L 123.92 107.59 L 125.00 105.86 L 125.13 103.76 L 126.80 102.28 L 127.45 100.38 L 129.22 98.94 L 130.12 97.16 L 131.43 95.50 L 133.00 94.04 L 134.54 92.47 L 136.03 90.86 L 137.81 89.91 L 139.44 88.64 L 140.92 86.95 L 142.67 85.96 L 144.35 84.77 L 145.80 83.04 L 147.56 82.07 L 149.18 80.72 L 150.97 79.81 L 152.55 78.40 L 154.42 77.67 L 155.94 76.11 L 157.79 75.34 L 159.38 73.94 L 161.24 73.20 L 162.98 72.16 L 164.83 71.40 L 166.59 70.42 L 168.41 69.57 L 170.19 68.63 L 172.00 67.78 L 173.79 66.85 L 175.59 65.98 L 177.27 64.79 L 179.08 63.93 L 181.02 63.38 L 182.73 62.26 L 184.59 61.54 L 186.34 60.51 L 188.16 59.68 L 190.08 59.08 L 191.91 58.25 L 193.66 57.24 L 195.70 56.94 L 197.50 56.05 L 199.24 55.02 L 201.25 54.63 L 203.07 53.79 L 204.91 53.00 L 206.76 52.23 L 208.83 52.00 L 210.57 50.96 L 212.53 50.46 L 214.53 50.04 L 216.25 48.98 L 218.31 48.71 L 220.19 48.02 L 221.97 47.07 L 224.06 46.89 L 225.89 46.08 L 227.74 45.30 L 229.79 45.02 L 231.67 44.31 L 233.69 43.96 L 235.45 42.99 L 237.47 42.63 L 239.37 41.97 L 241.39 41.61 L 243.29 40.97 L 245.32 40.64 L 247.24 40.03 L 249.01 39.07 L 251.18 39.08 L 252.95 38.10 L 255.10 38.07 L 256.89 37.15 L 259.02 37.06 L 260.84 36.22 L 262.92 36.01 L 265.04 35.90 L 266.82 34.95 L 268.94 34.84 L 270.72 33.91 L 272.98 34.13 L 274.79 33.25 L 276.83 32.95 L 279.06 33.09 L 280.85 32.19 L 282.95 32.02 L 285.11 32.00 L 287.16 31.71 L 289.00 30.93 L 291.21 31.03 L 293.36 30.99 L 295.18 30.13 L 297.27 29.95 L 299.47 30.02 L 301.62 29.97 L 303.38 29.00 L 305.55 29.00 L 307.71 28.98 L 309.92 29.07 L 311.77 28.31 L 313.79 27.94 L 315.99 28.02 L 318.15 28.02 L 320.31 27.99 L 322.48 27.99 L 324.66 28.03 L 326.39 26.97 L 328.57 27.00 L 330.74 27.01 L 332.91 27.00 L 335.08 26.99 L 337.25 27.00 L 339.41 27.01 L 341.58 27.01 L 343.76 26.99 L 345.90 27.05 L 347.65 28.06 L 349.85 27.97 L 352.01 27.99 L 354.15 28.06 L 356.36 27.96 L 358.54 27.93 L 360.47 28.52 L 362.42 29.05 L 364.59 29.03 L 366.77 29.01 L 368.50 30.06 L 370.73 29.91 L 372.60 30.63 L 374.62 30.99 L 376.56 31.56 L 378.54 31.99 L 380.49 32.52 L 382.47 32.98 L 384.23 33.96 L 386.30 34.22 L 387.99 35.36 L 389.89 36.00 L 391.45 37.48 L 393.26 38.36 L 394.83 39.78 L 396.31 41.38 L 397.95 42.86 L 399.35 44.44 L 400.42 46.17 L 401.16 48.04 L 402.07 49.82 L 402.01 52.04 L 401.94 54.17 L 402.05 56.36 L 401.97 58.52 L 401.07 60.30 L 400.59 62.28 L 399.82 64.12 L 398.33 65.68 L 397.57 67.53 L 396.58 69.29 L 395.15 70.87 L 394.39 72.72 L 392.98 74.30 L 392.07 76.09 L 390.42 77.59 L 388.85 79.09 L 387.35 80.62 L 385.86 82.21 L 384.29 83.75 L 382.61 84.90 L 380.97 86.12 L 379.37 87.54 L 377.82 89.10 L 376.35 90.72 L 374.89 92.26 L 372.86 93.04 L 372.06 91.15 L 371.39 89.32 L 370.97 87.27 L 370.39 85.40 L 369.63 83.42 L 367.93 83.79 L 366.95 85.76 L 367.06 87.91 L 366.80 89.99 L 365.88 91.76 L 364.65 93.50 L 362.98 94.74 L 361.21 95.75 L 359.15 95.97 L 357.24 96.62 L 355.29 97.11 L 352.97 96.87 L 351.93 98.07 L 352.26 99.99 L 354.13 100.82 L 355.85 101.73 L 357.08 103.57 L 355.72 104.98 L 353.91 105.89 L 352.49 107.67 L 350.58 108.31 L 349.08 109.91 L 347.23 110.69 L 345.61 112.01 L 343.89 113.09 L 342.15 114.13 L 340.38 115.10 L 338.55 115.91 L 336.88 117.10 L 335.15 118.17 L 333.35 119.06 L 331.54 119.93 L 329.90 121.20 L 328.13 122.17 L 326.33 123.05 L 324.56 124.00 L 322.75 124.87 L 320.95 125.78 L 319.15 126.65 L 317.39 127.65 L 315.54 128.40 L 313.77 129.37 L 312.19 130.78 L 310.14 131.08 L 308.39 132.09 L 306.58 132.94 L 304.80 133.88 L 302.97 134.72 L 301.23 135.74 L 299.37 136.49 L 297.62 137.49 L 295.79 138.31 L 294.02 139.27 L 292.20 140.12 L 290.41 141.04 L 288.62 141.94 L 286.85 142.89 L 284.78 143.14 L 283.24 144.66 L 281.46 145.59 L 279.63 146.40 L 277.82 147.27 L 275.96 148.06 L 274.97 149.74 L 276.99 149.90 L 278.70 148.97 L 280.47 147.97 L 282.47 147.57 L 284.39 146.98 L 286.21 146.14 L 288.01 145.25 L 289.73 144.17 L 291.79 143.91 L 293.56 142.95 L 295.37 142.08 L 297.14 141.11 L 299.18 140.81 L 301.04 140.07 L 302.88 139.28 L 304.70 138.43 L 306.48 137.49 L 308.28 136.61 L 310.09 135.73 L 311.86 134.77 L 313.71 134.00 L 315.68 133.52 L 317.42 132.50 L 319.24 131.66 L 321.02 130.72 L 322.83 129.85 L 324.62 128.93 L 326.42 128.04 L 328.22 127.16 L 330.00 126.22 L 331.82 125.39 L 333.57 124.38 L 335.41 123.58 L 337.21 122.70 L 338.98 121.74 L 340.78 120.85 L 342.60 119.99 L 344.26 118.77 L 346.05 117.85 L 347.78 116.80 L 349.62 116.00 L 351.29 114.80 L 352.99 113.67 L 354.84 112.90 L 356.48 111.62 L 358.21 110.58 L 359.89 109.35 L 361.60 108.37 L 363.28 106.97 L 365.06 107.99 L 366.02 109.72 L 367.03 111.49 L 367.44 113.52 L 368.04 115.34 L 368.02 117.68 L 369.28 119.02 L 371.05 117.96 L 370.87 115.67 L 371.47 113.76 L 371.99 111.81 L 372.27 109.76 L 373.22 107.97 L 374.53 106.34 L 376.28 105.10 L 378.01 104.19 L 380.13 103.98 L 382.16 103.69 L 384.02 102.93 L 386.21 102.96 L 387.02 100.97 L 385.28 99.94 L 383.54 98.94 L 381.32 99.14 L 379.38 98.36 L 379.24 96.64 L 381.06 95.17 L 382.75 94.34 L 384.29 92.63 L 385.87 91.30 L 387.67 90.37 L 389.19 88.81 L 390.71 87.26 L 392.25 85.75 L 393.79 84.22 L 395.33 82.68 L 396.87 81.15 L 398.38 79.61 L 399.72 78.00 L 400.82 76.28 L 402.20 74.69 L 403.83 73.20 L 404.57 71.33 L 406.01 69.76 L 406.74 67.90 L 407.72 66.13 L 408.57 64.32 L 409.51 62.54 L 410.38 60.73 L 411.05 58.84 L 411.90 57.02 L 412.00 54.90 L 412.01 52.72 L 411.97 50.57 L 412.12 48.34 L 411.39 46.47 L 411.00 44.47 L 410.01 42.71 L 409.22 40.87 L 408.17 39.15 L 406.93 37.47 L 405.89 35.76 L 404.20 34.26 L 402.43 33.50 L 400.92 31.80 L 399.16 30.87 L 397.52 29.56 L 395.72 28.68 L 393.97 27.67 L 392.08 27.01 L 390.24 26.22 L 388.16 26.00 L 386.42 24.96 L 384.46 24.46 L 382.49 23.98 L 380.70 23.07 L 378.53 23.07 L 376.57 22.57 L 374.69 21.88 L 372.44 22.07 L 370.71 21.00 L 368.56 20.98 L 366.34 21.10 L 364.46 20.41 L 362.46 19.98 L 360.30 19.97 L 358.10 20.05 L 356.05 19.77 L 354.16 19.09 L 352.07 18.89 L 349.87 18.98 L 347.67 19.05 L 345.51 19.03 L 343.36 18.99 L 341.20 18.98 L 339.03 18.99 L 336.85 19.01 L 334.68 19.02 L 332.51 19.01 L 330.34 18.99 L 328.18 18.99 L 326.02 19.01 L 323.84 19.01 L 321.66 18.98 L 319.50 18.98 L 317.36 19.06 L 315.12 18.90 Z" fill="#000" fill-rule="evenodd"/>
</svg>